<?xml version="1.0" standalone="no"?>
<!DOCTYPE svg PUBLIC "-//W3C//DTD SVG 20010904//EN"
 "http://www.w3.org/TR/2001/REC-SVG-20010904/DTD/svg10.dtd">
<svg version="1.0" xmlns="http://www.w3.org/2000/svg"
 width="256.000000pt" height="256.000000pt" viewBox="0 0 256.000000 256.000000"
 preserveAspectRatio="xMidYMid meet">
<metadata>
Created by potrace 1.14, written by Peter Selinger 2001-2017
</metadata>
<g transform="translate(0.000000,256.000000) scale(0.100000,-0.100000)"
fill="#000000" stroke="none">
<path d="M1238 2190 l-3 -371 -39 53 -40 52 0 193 0 193 -41 0 -42 0 1 -146
c1 -80 -2 -148 -5 -150 -3 -1 -22 8 -42 22 l-37 25 0 84 0 85 -40 0 -40 0 0
-66 c0 -55 -2 -65 -15 -60 -106 40 -264 53 -366 30 -217 -50 -377 -178 -470
-378 -87 -185 -73 -432 33 -601 l31 -50 1 -278 c1 -214 4 -280 14 -286 11 -6
26 -7 63 -2 3 1 6 101 7 224 0 122 1 226 1 230 1 5 19 -6 41 -23 l40 -32 0
-284 0 -284 40 0 40 0 0 260 c0 143 3 260 8 260 4 -1 23 -9 42 -18 l34 -17 1
-345 0 -344 40 -1 40 0 2 330 c1 182 2 332 2 335 1 3 20 4 44 2 l42 -4 0 -121
c0 -127 12 -188 58 -286 118 -259 417 -417 698 -371 335 55 566 336 556 675
l-4 103 38 4 c21 2 41 2 46 1 4 -2 7 -151 7 -333 -2 -361 -7 -332 56 -333 l25
-1 0 344 0 345 35 17 c19 9 38 17 43 18 4 0 7 -117 7 -260 l0 -260 40 0 40 0
0 284 0 284 39 31 c21 17 40 31 42 31 2 0 3 -101 3 -225 -1 -199 1 -227 15
-233 9 -4 23 -7 31 -6 8 1 20 2 26 3 8 1 11 83 10 278 -1 248 1 281 17 308 96
166 127 331 93 494 -63 300 -320 516 -626 526 -87 3 -183 -13 -252 -40 -16 -6
-18 0 -18 59 l0 66 -40 0 -40 0 0 -85 0 -84 -42 -29 -43 -30 1 154 2 154 -42
0 -43 0 1 -191 1 -190 -43 -62 -44 -62 2 35 c1 19 2 189 1 378 l-1 342 -40 0
-40 0 -2 -370z m-434 -146 c137 -34 285 -145 354 -266 29 -51 72 -167 72 -195
0 -10 -35 -13 -173 -13 l-173 0 -25 -50 c-13 -27 -26 -50 -29 -50 -3 0 -32 63
-65 139 -32 77 -62 138 -66 136 -4 -3 -39 -86 -79 -185 -40 -100 -74 -180 -75
-178 -1 2 -29 108 -61 237 l-58 234 -80 -162 -81 -161 -91 0 -91 0 8 48 c34
185 149 341 314 423 44 22 94 42 110 45 117 23 193 22 289 -2z m1224 5 c78
-15 199 -80 262 -141 67 -64 107 -122 143 -205 122 -288 -26 -636 -321 -752
-59 -23 -86 -30 -159 -38 -42 -4 -53 -2 -53 9 0 24 -52 121 -97 179 -103 136
-259 228 -430 254 -48 8 -44 -3 -48 144 -3 171 92 352 240 455 140 99 286 128
463 95z m-1563 -696 c32 -128 61 -233 64 -233 3 0 44 95 90 211 46 115 85 209
86 207 2 -2 21 -46 43 -98 22 -52 48 -113 57 -135 l17 -40 54 108 c30 59 58
108 62 108 4 1 73 3 155 4 l147 1 -5 -55 c-3 -30 -9 -59 -13 -63 -4 -4 -25
-10 -47 -14 -213 -34 -411 -188 -500 -389 l-26 -58 -55 7 c-175 20 -333 123
-427 278 -39 65 -72 158 -79 218 l-3 35 115 0 115 0 40 82 c22 45 43 76 46 70
4 -7 32 -117 64 -244z m981 -99 c188 -63 329 -203 385 -384 116 -373 -182
-760 -573 -744 -207 8 -406 136 -492 317 -38 78 -41 88 -55 170 -51 299 164
603 465 657 68 12 212 4 270 -16z"/>
<path d="M1748 1707 l-146 -220 146 -218 c80 -121 148 -219 152 -219 4 0 71
97 150 215 100 151 140 219 136 231 -8 21 -275 422 -284 428 -4 2 -73 -95
-154 -217z m110 -117 c0 -136 4 -132 -83 -100 -27 9 -49 23 -47 30 3 13 120
190 126 190 2 0 4 -54 4 -120z m157 19 c37 -55 65 -101 63 -103 -1 -1 -33 -11
-70 -23 l-68 -21 0 124 c0 68 2 124 4 124 2 0 34 -45 71 -101z m-158 -293 c2
-31 2 -56 0 -56 -5 0 -97 138 -97 144 0 2 21 -4 47 -14 l48 -18 2 -56z m136
13 l-48 -72 -3 53 c-2 29 0 56 5 61 9 9 86 37 91 33 2 -1 -18 -35 -45 -75z"/>
<path d="M1168 1184 c-81 -19 -198 -81 -198 -104 0 -5 10 -20 23 -34 l22 -26
45 28 c139 88 319 85 456 -9 172 -117 226 -366 118 -545 l-35 -59 28 -22 c35
-28 37 -28 57 1 105 161 120 339 41 500 -60 125 -176 225 -303 262 -72 21
-185 25 -254 8z"/>
<path d="M1240 1033 l0 -43 -63 0 -62 0 0 -287 c0 -222 3 -288 13 -289 6 -1
35 -2 62 -3 l50 -1 0 -40 0 -40 40 0 c40 0 40 0 40 40 0 37 2 40 40 50 112 30
160 153 97 249 l-25 37 24 27 c35 41 37 128 5 181 -22 35 -86 76 -119 76 -17
0 -21 7 -24 42 -3 41 -4 42 -40 43 l-38 1 0 -43z m141 -152 c25 -31 25 -85 -1
-111 -22 -22 -27 -23 -117 -24 -68 -2 -65 -5 -65 64 0 17 1 46 1 66 l1 36 81
-4 c70 -3 83 -6 100 -27z m-20 -231 c24 -13 46 -59 41 -86 -1 -12 -14 -32 -28
-45 -20 -19 -36 -23 -99 -24 l-75 -1 -1 28 c0 15 0 48 0 73 0 25 0 50 0 55 1
13 137 13 162 0z"/>
<path d="M859 963 c-16 -27 -39 -77 -49 -113 -54 -178 -14 -351 112 -486 164
-175 427 -207 631 -76 43 29 46 40 13 71 l-24 23 -39 -26 c-21 -15 -67 -35
-102 -46 -195 -61 -401 30 -494 219 -30 62 -32 72 -32 172 0 105 1 108 41 187
l41 81 -21 21 c-32 29 -43 25 -77 -27z"/>
<path d="M1077 2473 c-2 -5 -3 -24 -3 -43 1 -33 2 -35 41 -35 39 0 40 1 42 35
1 19 -4 38 -10 42 -16 10 -65 10 -70 1z"/>
<path d="M1407 2473 c-2 -5 -4 -24 -3 -43 1 -34 2 -35 41 -35 40 0 40 0 40 40
0 38 -1 40 -37 42 -20 2 -39 0 -41 -4z"/>
<path d="M131 450 c-4 -3 -8 -22 -8 -42 0 -38 1 -38 42 -38 41 0 41 0 42 40 1
22 -1 40 -5 41 -36 4 -64 4 -71 -1z"/>
<path d="M2363 451 c-5 -3 -10 -23 -10 -44 l-1 -38 42 3 c40 3 41 4 43 41 1
23 -2 37 -10 38 -7 1 -22 3 -34 4 -12 1 -25 -1 -30 -4z"/>
<path d="M290 250 c0 -22 5 -40 10 -41 6 -1 19 -1 30 -1 11 0 25 0 30 1 6 1
10 19 10 41 l0 40 -40 0 -40 0 0 -40z"/>
<path d="M2190 250 c0 -22 5 -40 10 -41 62 -6 65 -5 68 39 l3 42 -40 0 -41 0
0 -40z"/>
<path d="M480 80 c-21 -4 -25 -12 -27 -43 l-3 -37 44 0 43 0 0 39 c0 43 -12
51 -57 41z"/>
<path d="M2037 79 c-9 -6 -15 -23 -15 -44 0 -36 0 -36 42 -33 39 3 41 4 41 37
0 29 -4 36 -26 41 -14 4 -33 4 -42 -1z"/>
</g>
</svg>
